<?xml version="1.0" encoding="UTF-8" standalone="no"?>
<!DOCTYPE svg PUBLIC "-//W3C//DTD SVG 1.1//EN" "http://www.w3.org/Graphics/SVG/1.1/DTD/svg11.dtd">
<svg width="100%" height="100%" viewBox="0 0 4911 8505" version="1.1" xmlns="http://www.w3.org/2000/svg" xmlns:xlink="http://www.w3.org/1999/xlink" xml:space="preserve" xmlns:serif="http://www.serif.com/" style="fill-rule:evenodd;clip-rule:evenodd;stroke-linecap:round;stroke-linejoin:round;stroke-miterlimit:1.5;">
    <g transform="matrix(1,0,0,1,-39068,-2834)">
        <g id="raised-curb" serif:id="raised curb" transform="matrix(2.26506,0,0,5.63716,-27570.8,-9017.35)">
            <rect x="29420.6" y="2102.49" width="2167.66" height="1508.55" style="fill:none;"/>
            <clipPath id="_clip1">
                <rect x="29420.6" y="2102.49" width="2167.66" height="1508.55"/>
            </clipPath>
            <g clip-path="url(#_clip1)">
                <g transform="matrix(1.23891,0,0,1.08286,-7265.09,-203.197)">
                    <g>
                        <g id="BASE" transform="matrix(4.35879,-1.15689,3.58712,0.952078,23697.1,2361.67)">
                            <rect x="277.128" y="1312" width="200.698" height="243.873" style="fill:rgb(101,214,255);"/>
                        </g>
                        <g id="BASE1" serif:id="BASE" transform="matrix(2.1794,-0.578446,1.79356,0.476039,27091.7,2942.02)">
                            <rect x="277.128" y="1312" width="200.698" height="243.873" style="fill:rgb(3,188,255);"/>
                        </g>
                        <g id="BASE2" serif:id="BASE" transform="matrix(2.1794,-0.578446,1.79356,0.476039,27091.7,2709.84)">
                            <rect x="277.128" y="1312" width="200.698" height="243.873" style="fill:rgb(3,188,255);"/>
                        </g>
                        <g id="BASE3" serif:id="BASE" transform="matrix(1.0897,-0.289223,0.89678,0.238019,28788.9,2883.92)">
                            <rect x="277.128" y="1312" width="200.698" height="243.873" style="fill:rgb(0,121,204);"/>
                        </g>
                        <g id="BASE4" serif:id="BASE" transform="matrix(1.0897,-0.289223,0.89678,0.238019,28132.8,3058.06)">
                            <rect x="277.128" y="1312" width="200.698" height="243.873" style="fill:rgb(0,121,204);"/>
                        </g>
                        <g id="BASE5" serif:id="BASE" transform="matrix(1.0897,-0.289223,0.89678,0.238019,29445,3058.06)">
                            <rect x="277.128" y="1312" width="200.698" height="243.873" style="fill:rgb(0,121,204);"/>
                        </g>
                        <g id="BASE6" serif:id="BASE" transform="matrix(1.0897,-0.289223,0.89678,0.238019,28788.9,3232.2)">
                            <rect x="277.128" y="1312" width="200.698" height="243.873" style="fill:rgb(0,121,204);"/>
                        </g>
                        <g id="SIDE" transform="matrix(4.35879,1.15689,-1.66176e-15,3.80831,29278.2,-3187.85)">
                            <rect x="277.128" y="1312" width="200.698" height="243.873" style="fill:rgb(212,194,0);"/>
                        </g>
                        <g id="FRONT" transform="matrix(4.35879,-1.15689,9.88478e-16,3.80831,28403.4,-2314.45)">
                            <rect x="277.128" y="1312" width="200.698" height="243.873" style="fill:rgb(109,0,65);"/>
                            <path d="M477.827,1312L277.128,1312L277.128,1555.87L477.827,1555.87L477.827,1312ZM477.54,1312.17L477.54,1555.7C477.54,1555.7 277.414,1555.7 277.414,1555.7C277.414,1546.88 277.414,1317.29 277.414,1312.17C277.414,1312.17 477.54,1312.17 477.54,1312.17L477.54,1312.17Z" style="fill:rgb(5,5,5);"/>
                        </g>
                        <g id="BOX" transform="matrix(4.35879,-1.15689,9.88478e-16,3.80831,29278.2,-2082.26)">
                            <rect x="277.128" y="1312" width="200.698" height="243.873" style="fill:none;stroke:black;stroke-width:1.98px;"/>
                        </g>
                        <g id="STD-CURB-HEIGHT" serif:id="STD CURB HEIGHT" transform="matrix(4.35879,1.15689,4.80436e-17,0.290193,29278.2,2285.89)">
                            <rect x="277.128" y="1312" width="200.698" height="243.873" style="fill:white;fill-opacity:0.36;stroke:black;stroke-width:1.33px;stroke-dasharray:1.33,2.66,0,0;"/>
                        </g>
                        <g id="STD-CURB-HEIGHT1" serif:id="STD CURB HEIGHT" transform="matrix(4.35879,-1.15689,-1.0369e-16,0.290193,29278.2,3391.48)">
                            <rect x="277.128" y="1312" width="200.698" height="243.873" style="fill:white;fill-opacity:0.36;stroke:black;stroke-width:1.5px;stroke-dasharray:1.5,3.01,0,0;"/>
                        </g>
                        <g id="STD-CURB-HEIGHT2" serif:id="STD CURB HEIGHT" transform="matrix(4.35879,-1.15689,-1.0369e-16,0.290193,28403.4,3159.29)">
                            <rect x="277.128" y="1312" width="200.698" height="243.873" style="fill:white;fill-opacity:0.36;stroke:black;stroke-width:1.5px;stroke-dasharray:1.5,3.01,0,0;"/>
                        </g>
                        <g id="STD-CURB-HEIGHT3" serif:id="STD CURB HEIGHT" transform="matrix(4.35879,-1.15689,-1.0369e-16,0.290193,28840.8,3275.39)">
                            <rect x="277.128" y="1312" width="200.698" height="243.873" style="fill:none;stroke:black;stroke-width:1.5px;stroke-dasharray:1.5,3.01,0,0;"/>
                        </g>
                        <g id="STD-CURB-HEIGHT4" serif:id="STD CURB HEIGHT" transform="matrix(4.35879,-1.15689,-1.0369e-16,0.290193,28512.8,3188.32)">
                            <rect x="277.128" y="1312" width="200.698" height="243.873" style="fill:none;stroke:black;stroke-width:1.5px;stroke-dasharray:1.5,3.01,0,0;"/>
                        </g>
                        <g id="STD-CURB-HEIGHT5" serif:id="STD CURB HEIGHT" transform="matrix(4.35879,-1.15689,-1.0369e-16,0.290193,29168.9,3362.46)">
                            <rect x="277.128" y="1312" width="200.698" height="243.873" style="fill:none;stroke:black;stroke-width:1.5px;stroke-dasharray:1.5,3.01,0,0;"/>
                        </g>
                        <g id="STD-CURB-HEIGHT6" serif:id="STD CURB HEIGHT" transform="matrix(4.35879,1.15689,4.80436e-17,0.290193,28840.8,2401.99)">
                            <rect x="277.128" y="1312" width="200.698" height="243.873" style="fill:none;stroke:black;stroke-width:1.33px;stroke-dasharray:1.33,2.66,0,0;"/>
                        </g>
                        <g id="STD-CURB-HEIGHT7" serif:id="STD CURB HEIGHT" transform="matrix(4.35879,1.15689,4.80436e-17,0.290193,28512.8,2489.06)">
                            <rect x="277.128" y="1312" width="200.698" height="243.873" style="fill:none;stroke:black;stroke-width:1.33px;stroke-dasharray:1.33,2.66,0,0;"/>
                        </g>
                        <g id="STD-CURB-HEIGHT8" serif:id="STD CURB HEIGHT" transform="matrix(4.35879,1.15689,4.80436e-17,0.290193,29168.9,2314.92)">
                            <rect x="277.128" y="1312" width="200.698" height="243.873" style="fill:none;stroke:black;stroke-width:1.33px;stroke-dasharray:1.33,2.66,0,0;"/>
                        </g>
                        <g id="STD-CURB-HEIGHT9" serif:id="STD CURB HEIGHT" transform="matrix(4.35879,1.15689,4.80436e-17,0.290193,28403.4,2518.08)">
                            <rect x="277.128" y="1312" width="200.698" height="243.873" style="fill:white;fill-opacity:0.36;stroke:black;stroke-width:1.33px;stroke-dasharray:1.33,2.66,0,0;"/>
                        </g>
                        <g id="BOX1" serif:id="BOX" transform="matrix(4.35879,1.15689,-6.04524e-16,3.80831,28403.4,-2955.66)">
                            <rect x="277.128" y="1312" width="200.698" height="243.873" style="fill:none;stroke:black;stroke-width:1.23px;"/>
                        </g>
                        <g id="TOP" transform="matrix(4.35879,-1.15689,3.58712,0.952078,23697.1,1432.93)">
                            <path d="M477.827,1312L277.128,1312L277.128,1555.87L477.827,1555.87L477.827,1312ZM466.239,1326.08L466.239,1541.79C466.239,1541.79 319.886,1541.79 288.715,1541.79C288.715,1541.79 288.715,1326.08 288.715,1326.08C288.715,1326.08 466.239,1326.08 466.239,1326.08L466.239,1326.08Z" style="fill:rgb(101,214,255);"/>
                        </g>
                    </g>
                </g>
                <g id="Raised-Curb" serif:id="Raised Curb" transform="matrix(1,0,0,1,0.0307813,0.00714079)">
                    <g>
                        <g id="TILE-SIDE" serif:id="TILE SIDE" transform="matrix(1.45892,0.338446,-2.77556e-17,0.0928429,29314.5,3052.33)">
                            <rect x="444.193" y="-488.914" width="742.88" height="825.42" style="fill:rgb(106,105,100);"/>
                            <path d="M1187.07,-488.914L444.193,-488.914L444.193,336.507L1187.07,336.507L1187.07,-488.914ZM1186.01,-481.192L1186.01,328.785C1186.01,328.785 467.542,328.785 445.252,328.785C445.252,328.785 445.252,-481.192 445.252,-481.192C482.551,-481.192 1164.31,-481.192 1186.01,-481.192L1186.01,-481.192Z" style="fill:rgb(88,88,83);"/>
                        </g>
                        <g id="TILE-FRONT" serif:id="TILE FRONT" transform="matrix(2.70007,-0.626375,-2.47063e-16,0.314238,30298.1,3170)">
                            <rect x="277.128" y="1312" width="200.698" height="243.873" style="fill:rgb(45,44,38);"/>
                            <path d="M477.827,1312L277.128,1312L277.128,1555.87L477.827,1555.87L477.827,1312ZM477.254,1314.28L477.254,1553.59C477.254,1553.59 277.7,1553.59 277.7,1553.59C277.7,1553.59 277.7,1332.14 277.7,1314.28L477.254,1314.28Z" style="fill:rgb(30,29,25);"/>
                        </g>
                        <g id="TILE-TOP" serif:id="TILE TOP" transform="matrix(2.70007,-0.626375,4.44424,1.031,23383.4,1978.2)">
                            <rect x="277.128" y="1312" width="200.698" height="243.873" style="fill:rgb(229,224,218);"/>
                            <path d="M477.827,1312L277.128,1312L277.128,1555.87L477.827,1555.87L477.827,1312ZM477.254,1312.35L477.254,1555.53C477.254,1555.53 277.7,1555.53 277.7,1555.53C277.7,1555.53 277.7,1312.35 277.7,1312.35L477.254,1312.35Z" style="fill:rgb(238,234,230);"/>
                        </g>
                        <g transform="matrix(2.15067,-0.498922,0.915084,0.212286,7807.18,4586.71)">
                            <rect x="6583.35" y="8738.85" width="64" height="1184.41" style="fill:rgb(169,169,169);"/>
                        </g>
                    </g>
                </g>
            </g>
        </g>
    </g>
</svg>
